<svg width="30" height="30" viewBox="0 0 30 30" fill="none" xmlns="http://www.w3.org/2000/svg">
    <circle cx="15" cy="15" r="14.5" stroke="black" />
    <path d="M17.7936 10.6615H21.5366V11.6258H17.7936V10.6615ZM14.0432 14.477C14.8705 14.0566 15.3039 13.417 15.3039 12.4288C15.3039 10.4742 13.9343 10 12.3527 10H8V19.8107H12.4747C14.152 19.8107 15.7261 18.954 15.7261 16.9615C15.7261 15.7302 15.1782 14.8197 14.0432 14.477ZM10.03 11.6736H11.9343C12.6679 11.6736 13.3265 11.8908 13.3265 12.7954C13.3265 13.6282 12.8143 13.9629 12.0882 13.9629H10.03V11.6736ZM12.197 18.145H10.0281V15.4433H12.2401C13.1332 15.4433 13.6979 15.8398 13.6979 16.844C13.6979 17.8322 13.0244 18.145 12.197 18.145ZM23 16.3618C23 14.2598 21.8424 12.5085 19.7486 12.5085C17.7129 12.5085 16.3283 14.1363 16.3283 16.2702C16.3283 18.4818 17.6398 20 19.7486 20C21.3452 20 22.379 19.2369 22.8762 17.6091H21.257C21.0807 18.2168 20.364 18.5356 19.8068 18.5356C18.7298 18.5356 18.167 17.8661 18.167 16.7284H22.9869C22.9925 16.6109 23 16.4873 23 16.3618ZM18.167 15.4971C18.2251 14.5627 18.8124 13.9789 19.6904 13.9789C20.6135 13.9789 21.075 14.5547 21.1557 15.4971H18.167Z" fill="black" />
</svg>