<svg width="30" height="30" viewBox="0 0 30 30" fill="none" xmlns="http://www.w3.org/2000/svg">
    <circle cx="15" cy="15" r="14.5" stroke="black" />
    <g clip-path="url(#clip0_0_1)">
        <path fill-rule="evenodd" clip-rule="evenodd" d="M15 7C10.5833 7 7 10.5833 7 15C7 19.4167 10.5833 23 15 23C19.408 23 23 19.4167 23 15C23 10.5833 19.408 7 15 7ZM20.284 10.6873C21.269 11.8869 21.814 13.3873 21.8287 14.9393C21.6033 14.896 19.3473 14.436 17.074 14.7227C17.0213 14.6093 16.978 14.488 16.926 14.3667C16.7846 14.0329 16.6343 13.703 16.4753 13.3773C18.9913 12.3533 20.1367 10.8787 20.284 10.6873ZM15 8.18067C16.7353 8.18067 18.3233 8.83067 19.5293 9.898C19.408 10.0713 18.3753 11.4513 15.946 12.362C14.826 10.306 13.586 8.622 13.3947 8.362C13.9209 8.23913 14.4596 8.17805 15 8.18V8.18067ZM12.0933 8.822C12.2753 9.06533 13.49 10.7573 14.6267 12.77C11.4333 13.6207 8.61333 13.6033 8.31 13.6033C8.75267 11.486 10.1847 9.72467 12.0933 8.822ZM8.16267 15.0087V14.8007C8.458 14.8093 11.772 14.8527 15.1827 13.8287C15.382 14.2107 15.564 14.6007 15.7373 14.9913C15.6507 15.0173 15.5553 15.0433 15.4687 15.0693C11.946 16.206 10.0713 19.312 9.91533 19.5727C8.78694 18.3203 8.16253 16.6944 8.16267 15.0087ZM15 21.8373C13.4813 21.8397 12.0058 21.3327 10.8093 20.3973C10.9307 20.1453 12.3187 17.4727 16.1713 16.128C16.1887 16.1193 16.198 16.1193 16.2147 16.1107C17.178 18.6007 17.568 20.692 17.6727 21.2907C16.848 21.6467 15.946 21.8373 15 21.8373ZM18.8093 20.666C18.74 20.2493 18.3753 18.254 17.4813 15.798C19.6247 15.46 21.4987 16.0153 21.7333 16.0933C21.438 17.9933 20.3447 19.6333 18.8093 20.666Z" fill="black" />
    </g>
    <defs>
        <clipPath id="clip0_0_1">
            <rect width="16" height="16" fill="white" transform="translate(7 7)" />
        </clipPath>
    </defs>
</svg>