<svg width="30" height="30" viewBox="0 0 30 30" fill="none" xmlns="http://www.w3.org/2000/svg">
<path d="M15 7.5C10.86 7.5 7.5 10.86 7.5 15C7.5 19.14 10.86 22.5 15 22.5H18.75V21H15C11.745 21 9 18.255 9 15C9 11.745 11.745 9 15 9C18.255 9 21 11.745 21 15V16.0725C21 16.665 20.4675 17.25 19.875 17.25C19.2825 17.25 18.75 16.665 18.75 16.0725V15C18.75 12.93 17.07 11.25 15 11.25C12.93 11.25 11.25 12.93 11.25 15C11.25 17.07 12.93 18.75 15 18.75C16.035 18.75 16.98 18.33 17.655 17.6475C18.1425 18.315 18.9825 18.75 19.875 18.75C21.3525 18.75 22.5 17.55 22.5 16.0725V15C22.5 10.86 19.14 7.5 15 7.5ZM15 17.25C13.755 17.25 12.75 16.245 12.75 15C12.75 13.755 13.755 12.75 15 12.75C16.245 12.75 17.25 13.755 17.25 15C17.25 16.245 16.245 17.25 15 17.25Z" fill="black"/>
<circle cx="15" cy="15" r="14.5" stroke="black"/>
</svg>