<svg width="30" height="30" viewBox="0 0 30 30" fill="none" xmlns="http://www.w3.org/2000/svg">
    <g clip-path="url(#clip0_0_1)">
        <path fill-rule="evenodd" clip-rule="evenodd" d="M11.9767 7.71066C12.7587 7.67466 13.0081 7.66666 15.0001 7.66666C16.9921 7.66666 17.2414 7.67532 18.0227 7.71066C18.8041 7.74599 19.3374 7.87066 19.8041 8.05132C20.2927 8.23599 20.7361 8.52466 21.1027 8.89799C21.4761 9.26399 21.7641 9.70666 21.9481 10.196C22.1294 10.6627 22.2534 11.196 22.2894 11.976C22.3254 12.7593 22.3334 13.0087 22.3334 15C22.3334 16.992 22.3247 17.2413 22.2894 18.0233C22.2541 18.8033 22.1294 19.3367 21.9481 19.8033C21.7641 20.2927 21.4756 20.7361 21.1027 21.1027C20.7361 21.476 20.2927 21.764 19.8041 21.948C19.3374 22.1293 18.8041 22.2533 18.0241 22.2893C17.2414 22.3253 16.9921 22.3333 15.0001 22.3333C13.0081 22.3333 12.7587 22.3247 11.9767 22.2893C11.1967 22.254 10.6634 22.1293 10.1967 21.948C9.70736 21.764 9.26396 21.4755 8.89741 21.1027C8.52433 20.7364 8.23562 20.2932 8.05141 19.804C7.87075 19.3373 7.74675 18.804 7.71075 18.024C7.67475 17.2407 7.66675 16.9913 7.66675 15C7.66675 13.008 7.67541 12.7587 7.71075 11.9773C7.74608 11.196 7.87075 10.6627 8.05141 10.196C8.2359 9.70671 8.52483 9.26353 8.89808 8.89732C9.26411 8.52432 9.70706 8.23562 10.1961 8.05132C10.6627 7.87066 11.1961 7.74666 11.9761 7.71066H11.9767ZM17.9634 9.03066C17.1901 8.99532 16.9581 8.98799 15.0001 8.98799C13.0421 8.98799 12.8101 8.99532 12.0367 9.03066C11.3214 9.06332 10.9334 9.18266 10.6747 9.28332C10.3327 9.41666 10.0881 9.57466 9.83141 9.83132C9.58811 10.068 9.40087 10.3562 9.28341 10.6747C9.18275 10.9333 9.06341 11.3213 9.03075 12.0367C8.99541 12.81 8.98808 13.042 8.98808 15C8.98808 16.958 8.99541 17.19 9.03075 17.9633C9.06341 18.6787 9.18275 19.0667 9.28341 19.3253C9.40075 19.6433 9.58808 19.932 9.83141 20.1687C10.0681 20.412 10.3567 20.5993 10.6747 20.7167C10.9334 20.8173 11.3214 20.9367 12.0367 20.9693C12.8101 21.0047 13.0414 21.012 15.0001 21.012C16.9587 21.012 17.1901 21.0047 17.9634 20.9693C18.6787 20.9367 19.0667 20.8173 19.3254 20.7167C19.6674 20.5833 19.9121 20.4253 20.1687 20.1687C20.4121 19.932 20.5994 19.6433 20.7167 19.3253C20.8174 19.0667 20.9367 18.6787 20.9694 17.9633C21.0047 17.19 21.0121 16.958 21.0121 15C21.0121 13.042 21.0047 12.81 20.9694 12.0367C20.9367 11.3213 20.8174 10.9333 20.7167 10.6747C20.5834 10.3327 20.4254 10.088 20.1687 9.83132C19.932 9.58804 19.6439 9.4008 19.3254 9.28332C19.0667 9.18266 18.6787 9.06332 17.9634 9.03066ZM14.0634 17.2607C14.5865 17.4784 15.169 17.5078 15.7114 17.3438C16.2537 17.1798 16.7223 16.8326 17.0372 16.3615C17.352 15.8904 17.4935 15.3246 17.4374 14.7607C17.3814 14.1969 17.1314 13.67 16.7301 13.27C16.4742 13.0143 16.1649 12.8185 15.8243 12.6968C15.4837 12.575 15.1204 12.5302 14.7604 12.5657C14.4005 12.6012 14.0528 12.7161 13.7426 12.9021C13.4324 13.088 13.1672 13.3405 12.9663 13.6412C12.7653 13.942 12.6335 14.2835 12.5804 14.6413C12.5273 14.9991 12.5542 15.3642 12.6591 15.7103C12.764 16.0565 12.9444 16.3751 13.1872 16.6431C13.4301 16.9112 13.7293 17.1221 14.0634 17.2607ZM12.3347 12.3347C12.6848 11.9846 13.1003 11.707 13.5576 11.5176C14.0149 11.3281 14.5051 11.2306 15.0001 11.2306C15.4951 11.2306 15.9852 11.3281 16.4425 11.5176C16.8999 11.707 17.3154 11.9846 17.6654 12.3347C18.0154 12.6847 18.2931 13.1002 18.4825 13.5575C18.6719 14.0148 18.7694 14.505 18.7694 15C18.7694 15.495 18.6719 15.9851 18.4825 16.4425C18.2931 16.8998 18.0154 17.3153 17.6654 17.6653C16.9585 18.3722 15.9998 18.7693 15.0001 18.7693C14.0004 18.7693 13.0416 18.3722 12.3347 17.6653C11.6279 16.9584 11.2307 15.9997 11.2307 15C11.2307 14.0003 11.6279 13.0415 12.3347 12.3347ZM19.6054 11.792C19.6922 11.7102 19.7616 11.6118 19.8096 11.5026C19.8576 11.3935 19.8833 11.2758 19.885 11.1566C19.8868 11.0374 19.8646 10.919 19.8197 10.8085C19.7749 10.698 19.7084 10.5977 19.6241 10.5133C19.5397 10.429 19.4394 10.3625 19.3289 10.3177C19.2184 10.2728 19.1 10.2506 18.9808 10.2524C18.8616 10.2541 18.7439 10.2798 18.6348 10.3278C18.5256 10.3758 18.4272 10.4453 18.3454 10.532C18.1863 10.7007 18.0992 10.9247 18.1025 11.1566C18.1059 11.3885 18.1995 11.6099 18.3635 11.7739C18.5275 11.9379 18.7489 12.0315 18.9808 12.0349C19.2127 12.0382 19.4367 11.9511 19.6054 11.792Z" fill="black" />
    </g>
    <circle cx="15" cy="15" r="14.5" stroke="black" />
    <defs>
        <clipPath id="clip0_0_1">
            <rect width="16" height="16" fill="white" transform="translate(7 7)" />
        </clipPath>
    </defs>
</svg>
    