<svg width="30" height="30" viewBox="0 0 30 30" fill="none" xmlns="http://www.w3.org/2000/svg">
<path fill-rule="evenodd" clip-rule="evenodd" d="M13.5003 12.2319H15.6668V13.3111C15.9789 12.6904 16.7792 12.1327 17.9815 12.1327C20.2862 12.1327 20.8334 13.3682 20.8334 15.6351V19.8333H18.5001V16.1513C18.5001 14.8604 18.188 14.1324 17.3935 14.1324C16.2916 14.1324 15.8337 14.917 15.8337 16.1507V19.8333H13.5003V12.2319ZM9.49925 19.7342H11.8326V12.1327H9.49925V19.7342ZM12.1668 9.65416C12.1669 9.84973 12.1281 10.0434 12.0527 10.2238C11.9773 10.4043 11.8668 10.568 11.7276 10.7053C11.4455 10.9857 11.0636 11.1426 10.6659 11.1417C10.2689 11.1414 9.88793 10.9849 9.60541 10.7059C9.4667 10.5681 9.35656 10.4042 9.28128 10.2237C9.20601 10.0433 9.16709 9.8497 9.16675 9.65416C9.16675 9.25924 9.32425 8.88124 9.606 8.60241C9.88826 8.32308 10.2694 8.16648 10.6665 8.16666C11.0643 8.16666 11.4458 8.32357 11.7276 8.60241C12.0087 8.88124 12.1668 9.25924 12.1668 9.65416Z" fill="black"/>
<circle cx="15" cy="15" r="14.5" stroke="black"/>
</svg>