<?xml version="1.0" encoding="UTF-8"?>
<svg xmlns="http://www.w3.org/2000/svg" width="80" height="19" viewBox="0 0 80 19" fill="none">
    <g clip-path="url(#clip0_3_8)">
        <path d="M3.1 18.6V12.05C3.1471 10.3474 3.08029 8.64364 2.9 6.95L7.525 18.6H10.475L15.125 6.925C14.9335 8.93561 14.8751 10.9567 14.95 12.975V18.6H18.05V0.325001H14.9L9 14.875L3.1 0.325001H0V18.6H3.1ZM20.85 5.425C20.85 8.225 22.475 10 25.575 10.675L28.475 11.325C29.975 11.65 30.6 12.375 30.6 13.6C30.6 15.125 29.25 16.05 27.125 16.05C25.075 16.05 23.825 15.125 23.8 13.575H20.6C20.675 16.85 23.225 18.925 27.125 18.925C31.15 18.925 33.8 16.725 33.8 13.325C33.8 10.6 32.275 9 29.15 8.325L26.275 7.7C24.75 7.35 24.05 6.625 24.05 5.325C24.05 3.8 25.325 2.85 27.3 2.85C29.1 2.85 30.225 3.775 30.3 5.35H33.5C33.4 2.05 31.05 0 27.35 0C23.5 0 20.85 2.225 20.85 5.425ZM36.7 18.6H44.1C47.875 18.6 50.05 16.775 50.05 13.65C50.1276 12.7224 49.8809 11.7967 49.352 11.0307C48.8232 10.2648 48.0449 9.70609 47.15 9.45C47.9762 9.11848 48.6757 8.53301 49.1475 7.77811C49.6193 7.02321 49.839 6.13791 49.775 5.25C49.775 2.2 47.575 0.325001 43.975 0.325001H36.7V18.6ZM43.7 3.15C45.5 3.15 46.5 4 46.5 5.575C46.5 7.2 45.525 8.125 43.775 8.125H39.9V3.15H43.7ZM43.975 10.825C45.75 10.825 46.775 11.7 46.775 13.25C46.775 14.9 45.775 15.775 43.975 15.775H39.9V10.825H43.975ZM56.175 18.6V10.85H64.275V18.6H67.475V0.325001H64.275V7.875H56.175V0.325001H52.975V18.6H56.175Z" fill="#03559B"></path>
        <path d="M79.975 11.6H72.975V18.6H79.975V11.6Z" fill="#03559B"></path>
    </g>
    <defs>
        <clipPath id="clip0_3_8">
            <rect width="79.975" height="18.925" fill="white"></rect>
        </clipPath>
    </defs>
</svg>